<svg width="100" height="100" viewBox="0 0 100 100" fill="none" xmlns="http://www.w3.org/2000/svg">
  <circle cx="50" cy="50" r="45" fill="#6992ea"/>
  <path d="M65 61.5C65 61.5 62.5 64 60.5 66C58.5 68 54 68.5 48 62.5C42 56.5 35 49.5 32 43.5C29 37.5 29.5 33 31.5 31C33.5 29 36 26.5 36 26.5C36 26.5 38.5 23.5 41 26L46.5 33.5C48.5 36 47.5 38 46 39.5L44 41.5C44 41.5 43.5 43 45.5 46C47.5 49 51 52.5 54 54.5C57 56.5 58.5 56 58.5 56L60.5 54C62 52.5 64 51.5 66.5 53.5L74 59C76.5 61.5 73.5 64 73.5 64L65 61.5Z" fill="white"/>
</svg>
